<svg width="86" height="20" viewBox="0 0 86 20" fill="none" xmlns="http://www.w3.org/2000/svg">
<g clip-path="url(#clip0_1161_304730)">
<path d="M9.71592 6.38904L12.8142 3.22736L17.744 3.10156L17.3011 7.85943L14.2548 10.9687L9.59326 11.4208L9.71592 6.38904Z" fill="#111827"/>
<path d="M5.74596 10.9692L2.69902 7.85926L0 0.799805L7.18481 3.22839L10.2836 6.39068L10.4081 11.423L5.74596 10.9692Z" fill="#111827"/>
<path d="M2.69774 12.9393L5.74409 9.82994L10.4056 9.37793L10.2824 14.4097L7.18471 17.5713L2.25488 17.6971L2.69774 12.9393Z" fill="#111827"/>
<path d="M12.8141 17.5701L9.71525 14.4078L9.59082 9.37549L14.2529 9.82931L17.2999 12.9392L20.0001 19.9999L12.8141 17.5701Z" fill="#111827"/>
<path d="M5.78891 9.07596L3.98917 7.23902L1.33496 2.06104L6.61507 4.58412L8.95496 6.97238L9.99931 10.3995L5.78891 9.07596Z" fill="#78DFFF"/>
<path d="M3.98853 13.5599L5.79889 11.7121L9.99926 10.3994L8.95374 13.8283L6.61502 16.2154L3.73438 16.2888L3.98853 13.5599Z" fill="#FFC947"/>
<path d="M13.3838 16.2148L11.0439 13.8259L9.99951 10.3994L14.1993 11.7121L16.0091 13.5599L18.6662 18.7403L13.3838 16.2148Z" fill="#78DFFF"/>
<path d="M11.0444 6.97025L13.3838 4.58259L16.2644 4.50977L16.0102 7.23869L14.2123 9.07443L9.99951 10.3992L11.0444 6.97025Z" fill="#FFC947"/>
</g>
<g clip-path="url(#clip1_1161_304730)">
<path d="M24.1331 4.09766H27.6899C28.2324 4.09766 28.7108 4.20237 29.1249 4.41178C29.3938 4.54707 29.665 4.72825 29.9387 4.95413C30.0756 5.05648 30.2318 5.21177 30.4086 5.42001C30.5854 5.64001 30.7089 5.80119 30.7792 5.90354C30.8712 6.05648 30.9463 6.1859 31.0044 6.29295C31.0226 6.32119 31.0371 6.34942 31.0504 6.37766C31.1824 6.63766 31.2902 6.89766 31.375 7.15766C31.4549 7.3553 31.5276 7.63295 31.593 7.98825C31.6632 8.3553 31.6983 8.7906 31.6983 9.29413V11.9812H29.3102C29.3054 11.9812 29.3042 11.98 29.3042 11.9765C29.3042 11.9741 29.3029 11.9718 29.3005 11.9718C29.2981 11.9718 29.2969 11.9694 29.2969 11.9635V9.11531C29.2969 8.73648 29.2061 8.36707 29.0256 8.00472C28.9857 7.93178 28.9106 7.82119 28.8004 7.67413C28.6417 7.49884 28.4964 7.38354 28.3632 7.32589C28.1731 7.22472 27.9842 7.17295 27.794 7.17295H24.0205C23.7384 7.17295 23.4586 7.28354 23.1801 7.50354C23.1268 7.54942 23.0457 7.64236 22.9355 7.78354C22.8035 7.96942 22.7042 8.15884 22.6375 8.35178C22.5576 8.58354 22.5189 8.87413 22.5189 9.22472V10.7847C22.5189 11.18 22.5782 11.5224 22.6981 11.8106C22.7465 11.9459 22.8458 12.1071 22.996 12.2941C23.2915 12.6671 23.6548 12.853 24.0871 12.853H30.5236C30.744 12.853 30.9959 12.8506 31.2781 12.8447C31.6305 12.8388 32.0301 12.8365 32.4758 12.8365C32.7628 12.8365 33.0207 12.9753 33.2496 13.2518C33.3417 13.3871 33.4022 13.4977 33.4289 13.5824C33.5173 13.78 33.5609 13.9918 33.5609 14.2177V15.9047H24.0738C23.1256 15.9047 22.2767 15.5118 21.5271 14.7271C21.4604 14.6541 21.3393 14.5012 21.1638 14.2694C20.4674 13.2859 20.1187 12.1365 20.1187 10.82V9.16707C20.1187 8.04237 20.3814 7.02589 20.9058 6.11531C20.9724 5.99648 21.0996 5.81531 21.2897 5.57295C21.4919 5.31295 21.6627 5.12942 21.7995 5.02236C22.0151 4.82471 22.2343 4.66354 22.4547 4.53883C22.6182 4.44824 22.7938 4.36707 22.9839 4.29295C23.3254 4.16237 23.7093 4.09766 24.1331 4.09766Z" fill="#111827"/>
<path d="M38.0973 15.9046C37.7583 15.8882 37.5088 15.8705 37.3501 15.854C37.2266 15.854 36.9772 15.7999 36.603 15.6929C36.3208 15.6023 36.104 15.5117 35.9551 15.4211C35.748 15.3023 35.5409 15.1223 35.3338 14.8787C34.7913 14.2576 34.52 13.1634 34.52 11.5987L34.5733 5.61404C34.5733 5.21286 34.6593 4.88227 34.8312 4.62227C35.0698 4.27168 35.358 4.09639 35.6983 4.09639H37.0147V11.9964C37.0147 12.087 37.0329 12.1858 37.068 12.2929C37.1867 12.6034 37.3683 12.7587 37.6105 12.7587H43.7358C43.9126 12.7587 44.064 12.6599 44.1923 12.4623C44.2844 12.3435 44.3316 12.154 44.3316 11.894V4.11286C44.3316 4.10698 44.3316 4.10345 44.3316 4.09992C44.3316 4.09757 44.3365 4.09521 44.3449 4.09521H45.6553C45.8054 4.09521 45.9507 4.13756 46.0924 4.22227C46.3661 4.36933 46.5647 4.62345 46.6882 4.98463C46.7282 5.11992 46.7548 5.25874 46.7682 5.39992C46.8081 9.10698 46.8275 11.1952 46.8275 11.6634C46.8275 12.5164 46.733 13.2564 46.5429 13.8846C46.4945 14.0482 46.4218 14.2293 46.3249 14.427C46.1796 14.6987 45.998 14.9352 45.7824 15.1387C45.602 15.2858 45.4167 15.407 45.2266 15.5034C45.0364 15.6046 44.7518 15.6987 44.3728 15.7834C43.9356 15.8623 43.5747 15.9023 43.2877 15.9023H38.0973V15.9046Z" fill="#111827"/>
<path d="M59.4122 4.98853C59.3783 4.78971 59.3178 4.63207 59.2342 4.51442C59.0538 4.23677 58.8201 4.09912 58.533 4.09912H49.482C49.4299 4.10383 49.3887 4.11324 49.3645 4.12383C49.3148 4.13089 49.2434 4.16147 49.1453 4.21677C49.0133 4.30147 48.8995 4.43559 48.8014 4.61559C48.7081 4.8203 48.6621 5.01441 48.6621 5.20147V5.98147C48.6621 6.36383 48.6621 6.70853 48.6633 7.01559H59.4328V5.27795C59.4328 5.15206 59.4268 5.05677 59.4122 4.98853ZM59.4268 13.0921H51.0575V11.285L51.0648 11.2779H56.92V8.71795H48.6694C48.6694 8.74853 48.6706 8.77207 48.6706 8.79442V14.7532C48.6706 14.9332 48.6972 15.1026 48.7505 15.2603C48.8595 15.5379 49.0266 15.7297 49.2531 15.8368C49.3584 15.8815 49.442 15.9038 49.5025 15.9038H58.5209C58.7135 15.9038 58.877 15.8497 59.009 15.7427C59.0477 15.7203 59.1143 15.6485 59.2064 15.5309C59.3565 15.3062 59.4328 15.0615 59.4328 14.8015V13.0991C59.4328 13.0932 59.4292 13.0921 59.4268 13.0921Z" fill="#111827"/>
<path d="M63.2957 4.09766H71.6977C71.9266 4.09766 72.1434 4.19648 72.3456 4.39413C72.606 4.68236 72.7356 5.05295 72.7356 5.50472V7.15766H72.7222C72.1046 7.16942 70.7992 7.17413 68.8058 7.17413C67.2352 7.18589 66.0181 7.1906 65.1546 7.1906C64.25 7.20237 63.6348 7.20707 63.3091 7.20707C63.2425 7.20707 63.1831 7.23531 63.1298 7.29178C63.0862 7.34825 63.0632 7.4306 63.0632 7.53766V8.18237C63.0632 8.33531 63.1141 8.44001 63.2158 8.49648C63.2291 8.50236 63.24 8.50589 63.2485 8.50942C63.257 8.51177 63.2679 8.51413 63.2812 8.51413C65.283 8.50237 66.4262 8.49766 66.7084 8.49766C66.7786 8.49766 66.907 8.49531 67.0923 8.48942C67.613 8.47766 68.6012 8.47295 70.0556 8.47295H70.1089C70.299 8.47295 70.5521 8.50472 70.8694 8.5659C71.0983 8.61649 71.2884 8.67883 71.4386 8.75295C71.9145 8.9906 72.2572 9.36589 72.4643 9.88001C72.6447 10.3318 72.7356 10.8894 72.7356 11.5494V12.7612C72.7356 13.9588 72.4594 14.8035 71.9084 15.2953C71.4628 15.7024 70.7992 15.9059 69.9175 15.9059H61.7347C61.4259 15.9059 61.1571 15.7388 60.9282 15.4059C60.7647 15.1577 60.6836 14.8659 60.6836 14.533V12.8541H70.0047C70.1101 12.8541 70.1815 12.7894 70.2167 12.6588C70.2251 12.6424 70.2312 12.6247 70.2336 12.6082C70.236 12.5918 70.2372 12.58 70.2372 12.5741V11.6835C70.2372 11.5647 70.1864 11.48 70.0847 11.4294C70.058 11.4177 70.0314 11.413 70.0047 11.413H63.3103C62.2519 11.413 61.524 11.0765 61.1268 10.4047C61.0469 10.28 60.99 10.1647 60.9549 10.0565C60.9113 9.94942 60.8689 9.81648 60.8289 9.65766C60.7938 9.5106 60.7623 9.3306 60.7369 9.11531C60.7102 8.88354 60.6969 8.54118 60.6969 8.08942V8.02119C60.6969 6.9306 60.7696 6.17883 60.9149 5.76707C60.99 5.4906 61.1159 5.2306 61.2915 4.98707C61.3884 4.84589 61.4744 4.74707 61.5495 4.6906C61.805 4.46472 62.0944 4.30942 62.4165 4.22472C62.689 4.14001 62.9821 4.09766 63.2957 4.09766Z" fill="#111827"/>
<path d="M74.7872 4.09766H85.0348C85.2903 4.09766 85.5022 4.19648 85.6693 4.39413C85.7614 4.50707 85.8219 4.60001 85.8486 4.67413C85.9285 4.87178 85.9672 5.03884 85.9672 5.17413V7.17413H81.0251V15.9047H79.4908C79.2752 15.9047 79.0717 15.7941 78.8816 15.5741C78.8768 15.5682 78.8731 15.56 78.8683 15.5482C78.855 15.5318 78.838 15.5059 78.815 15.4718C78.6866 15.2577 78.6237 15.0365 78.6237 14.8106V7.17413H73.8535V5.61413C73.8535 5.21295 73.862 5.00942 73.8802 5.00354C73.9201 4.77766 73.9879 4.59648 74.0848 4.46119C74.1902 4.34237 74.2677 4.26942 74.3161 4.24119C74.4275 4.1459 74.5837 4.09766 74.7872 4.09766Z" fill="#111827"/>
</g>
<defs>
<clipPath id="clip0_1161_304730">
<rect width="20" height="20" fill="white"/>
</clipPath>
<clipPath id="clip1_1161_304730">
<rect width="66" height="12" fill="white" transform="translate(20 4)"/>
</clipPath>
</defs>
</svg>
